# xmcd
#
# Track frame offsets:
#      150
#      11195
#      25785
#      40028
#      49506
#      60422
#      70516
#      83232
#      92104
#      104402
# 
# Disc length: 1595 seconds
#
# Revision: 7
# Processed by: cddbd v1.4PL0 Copyright (c) Steve Scherf et al.
#
# Submitted via: FreeRIP 1.20
#
DISCID=7206390a
DTITLE=Tex Ritter - Tex Ritter - Greatest Hits
DYEAR=1997
DGENRE=Country
TTITLE0=Green grow the lilacs
TTITLE1=Conversation with a gun
TTITLE2=The Fool's Paradise
TTITLE3=Froggy went a courtin'
TTITLE4=Have I stayed too long
TTITLE5=Boll weevil
TTITLE6=High noon
TTITLE7=The keeper of the keys
TTITLE8=The gallows pole
TTITLE9=I dreamed of a Hillbilly Heaven
EXTD=YEAR: 1997 ID3G:   2
EXTT0=
EXTT1=
EXTT2=
EXTT3=
EXTT4=
EXTT5=
EXTT6=
EXTT7=
EXTT8=
EXTT9=
PLAYORDER=
